<?xml version="1.0" encoding="UTF-8" standalone="no"?>
<!-- Created with Inkscape (http://www.inkscape.org/) -->

<svg
   width="60.370625mm"
   height="11.90625mm"
   viewBox="0 0 60.370622 11.90625"
   version="1.1"
   id="svg5842"
   inkscape:version="1.2.2 (732a01da63, 2022-12-09)"
   sodipodi:docname="windows_for_justice_logo.svg"
   xml:space="preserve"
   xmlns:inkscape="http://www.inkscape.org/namespaces/inkscape"
   xmlns:sodipodi="http://sodipodi.sourceforge.net/DTD/sodipodi-0.dtd"
   xmlns:xlink="http://www.w3.org/1999/xlink"
   xmlns="http://www.w3.org/2000/svg"
   xmlns:svg="http://www.w3.org/2000/svg"
   xmlns:rdf="http://www.w3.org/1999/02/22-rdf-syntax-ns#"
   xmlns:cc="http://creativecommons.org/ns#"
   xmlns:dc="http://purl.org/dc/elements/1.1/"><defs
     id="defs5836"><linearGradient
       inkscape:collect="always"
       id="linearGradient76433"><stop
         style="stop-color:#110000;stop-opacity:1;"
         offset="0"
         id="stop76429" /><stop
         style="stop-color:#fcad19;stop-opacity:1"
         offset="1"
         id="stop76431" /></linearGradient><style
       id="style26217">.cls-1{fill:#fff;}</style><style
       id="style41315">.cls-1{fill:none;}.cls-2{fill:#e7272f;}.cls-3{fill:#e7262e;}</style><linearGradient
       inkscape:collect="always"
       xlink:href="#linearGradient76433"
       id="linearGradient76435"
       x1="3538.4443"
       y1="3876.8076"
       x2="3713.7307"
       y2="3159.125"
       gradientUnits="userSpaceOnUse" /></defs><sodipodi:namedview
     id="base"
     pagecolor="#ffffff"
     bordercolor="#ffffff"
     borderopacity="1"
     inkscape:pageopacity="0.0"
     inkscape:pageshadow="2"
     inkscape:zoom="0.08"
     inkscape:cx="10862.5"
     inkscape:cy="5362.5"
     inkscape:document-units="mm"
     inkscape:current-layer="layer1"
     showgrid="false"
     showborder="false"
     inkscape:window-width="1440"
     inkscape:window-height="877"
     inkscape:window-x="-8"
     inkscape:window-y="-8"
     inkscape:window-maximized="1"
     showguides="true"
     inkscape:guide-bbox="true"
     inkscape:showpageshadow="2"
     inkscape:pagecheckerboard="0"
     inkscape:deskcolor="#ffffff" /><metadata
     id="metadata5839"><rdf:RDF><cc:Work
         rdf:about=""><dc:format>image/svg+xml</dc:format><dc:type
           rdf:resource="http://purl.org/dc/dcmitype/StillImage" /></cc:Work></rdf:RDF></metadata><g
     inkscape:label="Layer 1"
     inkscape:groupmode="layer"
     id="layer1"
     transform="translate(-2680.3436,-3685.9852)"><g
       id="g153043"
       transform="matrix(0.04424883,0,0,0.04424883,2561.7415,3522.8847)"><g
         aria-label="Tech Advisors"
         id="text21316"
         style="font-weight:bold;font-size:138.931px;font-family:Fahkwang;-inkscape-font-specification:'Fahkwang, Bold';fill:#f9f9f9;stroke-width:0.67946"><path
           d="m 3007.0115,3780.5107 h -40.29 v -8.6137 h 104.0594 v 8.6137 h -40.29 v 88.638 h -23.4794 z"
           id="path153024" /><path
           d="m 3113.155,3863.3136 q 9.4473,0 14.4488,-4.168 5.1404,-4.1679 6.6687,-12.5037 h 15.2824 q -2.3619,11.5312 -12.7817,17.7831 -10.2809,6.113 -25.9801,6.113 -12.5038,0 -21.6732,-4.1679 -9.1695,-4.3069 -14.171,-12.226 -4.8626,-7.919 -4.8626,-18.7557 0,-10.9755 4.8626,-19.0335 5.0015,-8.058 14.171,-12.3649 9.1694,-4.3068 21.6732,-4.3068 19.3114,0 29.4534,9.1694 10.142,9.1695 10.142,26.6748 h -59.7404 v 0.8336 q 0,26.9526 22.5069,26.9526 z m -1.6672,-56.406 q -8.6137,0 -13.7542,5.5572 -5.1404,5.5573 -6.5297,15.8382 h 39.3174 q -1.1114,-10.5588 -5.974,-15.9771 -4.8626,-5.4183 -13.0595,-5.4183 z"
           id="path153021" /><path
           d="m 3205.2663,3870.538 q -20.006,0 -30.9816,-9.0305 -10.8366,-9.1695 -10.8366,-26.3969 0,-17.2275 10.8366,-26.258 10.9756,-9.1694 30.9816,-9.1694 17.0886,0 27.0916,6.1129 10.003,6.113 11.5313,17.7832 h -15.2825 q -1.3893,-8.058 -7.0854,-12.3648 -5.5573,-4.3069 -14.3099,-4.3069 -11.3924,0 -17.3664,7.2244 -5.8351,7.2244 -5.8351,20.9786 0,13.7542 5.8351,20.9786 5.974,7.2244 17.3664,7.2244 8.4748,0 14.1709,-4.3069 5.8351,-4.4458 7.2244,-12.3648 h 15.2825 q -1.5283,11.6702 -11.6702,17.7831 -10.0031,6.113 -26.9527,6.113 z"
           id="path153018" /><path
           d="m 3260.1441,3774.2588 h 20.5618 v 38.0671 q 3.1954,-5.8351 9.7252,-9.1694 6.6687,-3.4733 14.8656,-3.4733 13.6153,0 21.3954,6.9465 7.9191,6.9466 7.9191,19.1725 v 43.3465 h -20.5618 v -44.5969 q 0,-17.6442 -14.7267,-17.6442 -8.6137,0 -13.6152,6.3908 -5.0016,6.3908 -5.0016,17.2275 v 38.6228 h -20.5618 z"
           id="path153015" /><path
           d="m 3462.4277,3844.5579 h -49.4594 l -11.9481,24.5908 h -16.3938 l 50.5708,-98.641 h 15.1435 l 47.6534,98.641 h -24.0351 z m -4.029,-8.6137 -20.2839,-43.4854 -20.9786,43.4854 z"
           id="path153012" /><path
           d="m 3538.0062,3870.538 q -10.6977,0 -19.1725,-4.5847 -8.3359,-4.5848 -13.1984,-12.6428 -4.7237,-8.1969 -4.7237,-18.4778 0,-10.6977 4.3069,-18.6167 4.3068,-8.058 12.2259,-12.226 7.9191,-4.3068 18.6168,-4.3068 8.7526,0 15.4213,3.3343 6.6687,3.3344 10.2809,9.5863 v -38.345 h 20.5618 v 94.8899 h -20.5618 v -10.4198 q -7.6412,11.8091 -23.7572,11.8091 z m 3.4733,-6.9466 q 9.3083,0 14.7266,-7.6412 5.5573,-7.6412 5.5573,-20.7007 0,-13.4763 -5.5573,-21.1175 -5.5572,-7.7801 -15.1434,-7.7801 -9.4473,0 -14.5878,7.3633 -5.0015,7.2244 -5.0015,21.1175 0,13.4763 5.2794,21.1175 5.2794,7.6412 14.7267,7.6412 z"
           id="path153009" /><path
           d="m 3592.606,3801.0725 h 21.1176 l 25.4243,48.9037 25.2855,-48.9037 h 12.3648 l -34.7327,69.4655 h -12.6427 z"
           id="path153006" /><path
           d="m 3699.7219,3794.1259 q -5.6962,0 -9.4473,-3.3343 -3.6122,-3.3343 -3.6122,-8.4748 0,-5.1404 3.6122,-8.4748 3.7511,-3.3343 9.4473,-3.3343 5.6961,0 9.3083,3.3343 3.7512,3.3344 3.7512,8.4748 0,5.1405 -3.7512,8.4748 -3.6122,3.3343 -9.3083,3.3343 z m -10.2809,6.9466 h 20.5618 v 68.0762 h -20.5618 z"
           id="path153003" /><path
           d="m 3763.6302,3870.538 q -29.7313,0 -34.8717,-20.9786 h 15.2824 q 1.3893,6.8076 6.113,10.2809 4.8626,3.4733 13.8931,3.4733 8.1969,0 12.7816,-3.1954 4.7237,-3.3344 4.7237,-8.8916 0,-4.029 -4.7237,-7.0855 -4.7236,-3.0565 -12.9206,-4.3069 -17.7831,-2.7786 -25.7022,-7.6412 -7.9191,-4.8625 -7.9191,-13.1984 0,-9.0305 8.6138,-14.171 8.7526,-5.1404 25.5633,-5.1404 16.116,0 25.4243,5.1404 9.4473,5.1405 10.9756,15.1435 h -15.2824 q -1.3893,-6.3908 -6.3908,-9.7252 -4.8626,-3.3343 -12.6428,-3.3343 -15.4213,0 -15.4213,9.0305 0,2.6397 1.2504,4.4458 1.3893,1.6672 5.2793,3.1954 3.8901,1.3893 11.3924,2.6397 17.0885,2.9176 25.1465,8.4748 8.1969,5.4183 8.1969,14.4488 0,21.3954 -38.7617,21.3954 z"
           id="path153000" /><path
           d="m 3858.52,3870.538 q -13.0596,0 -22.6458,-4.3069 -9.5862,-4.3068 -14.7267,-12.2259 -5.1404,-8.058 -5.1404,-18.8946 0,-10.8366 5.1404,-18.7557 5.1405,-8.058 14.7267,-12.3649 9.5862,-4.3068 22.6458,-4.3068 13.0595,0 22.6457,4.3068 9.5862,4.3069 14.7267,12.3649 5.1404,7.9191 5.1404,18.7557 0,10.8366 -5.1404,18.8946 -5.1405,7.9191 -14.7267,12.2259 -9.5862,4.3069 -22.6457,4.3069 z m 0,-7.2244 q 10.1419,0 15.977,-7.5023 5.8351,-7.6412 5.8351,-20.7007 0,-13.0595 -5.8351,-20.5618 -5.8351,-7.6412 -15.977,-7.6412 -10.142,0 -15.9771,7.6412 -5.8351,7.5023 -5.8351,20.5618 0,13.0595 5.8351,20.7007 5.8351,7.5023 15.9771,7.5023 z"
           id="path152997" /><path
           d="m 3916.4542,3801.0725 h 20.5618 v 14.032 q 2.6397,-7.3633 8.1969,-11.3923 5.6962,-4.029 14.171,-4.029 2.7786,0 4.7236,0.5557 l -1.2504,12.087 q -2.2229,-1.1114 -5.8351,-1.1114 -10.2809,0 -15.1434,8.3358 -4.8626,8.3359 -4.8626,19.5893 v 30.0091 h -20.5618 z"
           id="path152994" /><path
           d="m 4005.9258,3870.538 q -29.7313,0 -34.8717,-20.9786 h 15.2824 q 1.3893,6.8076 6.113,10.2809 4.8626,3.4733 13.8931,3.4733 8.1969,0 12.7816,-3.1954 4.7237,-3.3344 4.7237,-8.8916 0,-4.029 -4.7237,-7.0855 -4.7236,-3.0565 -12.9206,-4.3069 -17.7831,-2.7786 -25.7022,-7.6412 -7.9191,-4.8625 -7.9191,-13.1984 0,-9.0305 8.6138,-14.171 8.7526,-5.1404 25.5633,-5.1404 16.116,0 25.4243,5.1404 9.4473,5.1405 10.9756,15.1435 h -15.2824 q -1.3893,-6.3908 -6.3909,-9.7252 -4.8625,-3.3343 -12.6427,-3.3343 -15.4213,0 -15.4213,9.0305 0,2.6397 1.2504,4.4458 1.3893,1.6672 5.2793,3.1954 3.8901,1.3893 11.3924,2.6397 17.0885,2.9176 25.1465,8.4748 8.1969,5.4183 8.1969,14.4488 0,21.3954 -38.7617,21.3954 z"
           id="path152991" /></g><g
         id="g103603"
         transform="matrix(0.32409806,0,0,0.32409806,1653.9111,2659.9751)"><path
           id="circle49534"
           style="fill:#fcad19;fill-opacity:1;stroke-width:0.60354"
           d="m 3582.1564,3165.7399 a 415.1134,415.1134 0 0 0 -415.1134,415.1134 415.1134,415.1134 0 0 0 415.1134,415.1135 415.1134,415.1134 0 0 0 415.1135,-415.1135 415.1134,415.1134 0 0 0 -415.1135,-415.1134 z m 0,26.4404 a 388.67306,388.67306 0 0 1 388.6731,388.673 388.67306,388.67306 0 0 1 -388.6731,388.6731 388.67306,388.67306 0 0 1 -388.673,-388.6731 388.67306,388.67306 0 0 1 388.673,-388.673 z" /><path
           id="path31569"
           style="fill:url(#linearGradient76435);fill-opacity:1;stroke-width:0.502761"
           d="m 3925.6022,3578.8926 a 345.79844,345.79844 0 0 1 -345.7983,345.7985 345.79844,345.79844 0 0 1 -345.7986,-345.7985 345.79844,345.79844 0 0 1 345.7986,-345.7983 345.79844,345.79844 0 0 1 345.7983,345.7983 z" /><path
           id="path67814"
           style="fill:#ffffff;stroke:#ffffff;stroke-width:5.29167;stroke-dasharray:none;stroke-opacity:1"
           d="m 3313.1143,3359.0303 a 345.79844,345.79844 0 0 0 -59.3586,105.3972 h 142.1184 v 339.5229 c 0,0.353 0.2842,0.6372 0.6372,0.6372 h 104.1223 c 0.353,0 0.6372,-0.2842 0.6372,-0.6372 v -1.511 l 208.6043,-226.1614 143.8646,213.604 a 345.79844,345.79844 0 0 0 55.5811,-106.1465 l -186.1912,-276.4487 -0.3679,0.3989 -0.3106,-0.461 c -0.031,0.024 -0.068,0.039 -0.095,0.07 l -221.0857,239.6929 v -182.5599 h 145.1922 c 0.3588,0 0.6469,-0.2887 0.6469,-0.6476 V 3359.678 c 0,-0.3587 -0.2881,-0.6475 -0.6469,-0.6475 z" /></g></g></g></svg>
